<svg width="30" height="30" viewBox="0 0 30 30" fill="none" xmlns="http://www.w3.org/2000/svg">
  <g clip-path="url(#clip0)">
    <path d="M7.5 0.9375H22.5C26.1219 0.9375 29.0625 3.87806 29.0625 7.5V22.5C29.0625 26.1219 26.1219 29.0625 22.5 29.0625H7.5C3.87806 29.0625 0.9375 26.1219 0.9375 22.5V7.5C0.9375 3.87806 3.87806 0.9375 7.5 0.9375Z" fill="url(#grad)"/>
    <path d="M7.5 0.9375H22.5C26.1219 0.9375 29.0625 3.87806 29.0625 7.5V22.5C29.0625 26.1219 26.1219 29.0625 22.5 29.0625H7.5C3.87806 29.0625 0.9375 26.1219 0.9375 22.5V7.5C0.9375 3.87806 3.87806 0.9375 7.5 0.9375Z" stroke="#D9AE3B" stroke-opacity="0.45" stroke-width="0.46875"/>
    <path d="M8.79054 25.9422C8.45488 25.8267 8.24028 25.6313 8.0807 25.2902L7.99266 25.1058L7.98441 20.4836C7.9789 17.105 7.98441 15.8174 8.00642 15.6964C8.0807 15.3139 8.31181 15.0086 8.66123 14.838L8.87032 14.7334L14.8819 14.7252C21.4685 14.7197 21.0283 14.7087 21.3117 14.8737C21.485 14.9755 21.7024 15.2232 21.7987 15.4295L21.8867 15.6138L21.895 20.3048C21.9005 24.9545 21.9005 24.9985 21.8454 25.1801C21.7354 25.5405 21.4438 25.8322 21.0778 25.945C20.9072 26 20.8027 26 14.9287 26C8.98313 25.9972 8.95561 25.9972 8.79054 25.9422ZM19.218 20.3873V17.4847H14.9397H10.6614L10.6532 20.3598C10.6504 21.9418 10.6532 23.2514 10.6614 23.2707C10.6697 23.2982 11.5418 23.3037 14.9452 23.2982L19.218 23.29V20.3873Z" fill="#FBF9E4"/>
    <path d="M8.85938 11.3021L8.86213 10.0833L9.37662 9.12031L9.89111 8.15736L12.238 8.1491C13.7264 8.14635 14.5821 8.15185 14.5821 8.17111C14.5821 8.18487 14.3427 8.6691 14.0483 9.24962L13.5146 10.3034L12.857 10.617C12.4966 10.7876 11.4594 11.2883 10.5542 11.723C9.64625 12.1605 8.89514 12.5182 8.88139 12.5182C8.87038 12.5182 8.85938 11.9707 8.85938 11.3021Z" fill="#FBF9E4"/>
  </g>
  <defs>
    <linearGradient id="grad" x1="0.9375" y1="0.9375" x2="29.0625" y2="29.0625" gradientUnits="userSpaceOnUse">
      <stop stop-color="#122C4F"/>
      <stop offset="1" stop-color="#060F1B"/>
    </linearGradient>
    <clipPath id="clip0">
      <rect width="30" height="30" fill="white"/>
    </clipPath>
  </defs>
</svg>
